<?xml version="1.0" standalone="no"?><svg xmlns:xlink="http://www.w3.org/1999/xlink" xmlns="http://www.w3.org/2000/svg" viewBox="0 0 1000 600" preserveAspectRatio="xMaxYMax slice"><g transform="scale(0.9940357852882704)"><rect x="0" y="0" width="1006.0000000000001" height="603.6" fill="#ffffff"/><g transform="translate(0,0) scale(10.059999999999999) rotate(0)"><path d="M10 0H20L0 20V10L10 0Z" fill="#ffc1d0"/><path d="M20 10V20H10L20 10Z" fill="#ffc1d0"/></g><polygon points="201.2,0 402.4,201.2 201.2,201.2" fill="#ff9eb5"/><g transform="translate(402.4,0) scale(10.059999999999999) rotate(0)"><path d="M10 0H20L0 20V10L10 0Z" fill="#ffe8ed"/><path d="M20 10V20H10L20 10Z" fill="#ffe8ed"/></g><g transform="translate(603.6,0) scale(10.059999999999999) rotate(0)"><path d="M10 0L20 10L10 20L0 10L10 0Z" fill="#f9f9f9"/></g><g transform="translate(804.8,0) scale(10.059999999999999) rotate(0)"><path d="M10 0H20L0 20V10L10 0Z" fill="#312e3d"/><path d="M20 10V20H10L20 10Z" fill="#312e3d"/></g><g transform="translate(0,201.2) scale(10.059999999999999) rotate(0)"><path d="M10 0H20L0 20V10L10 0Z" fill="#7b7982"/><path d="M20 10V20H10L20 10Z" fill="#7b7982"/></g><g transform="translate(201.2,201.2) scale(10.059999999999999) rotate(0)"><rect width="20" height="10" fill="#ff6086"/></g><g transform="translate(402.4,201.2) scale(10.059999999999999) rotate(0)"><path d="M10 0L20 10L10 20L0 10L10 0Z" fill="#514e5b"/></g><g transform="translate(603.6,201.2) scale(10.059999999999999) rotate(0)"><path d="M10 0H20L0 20V10L10 0Z" fill="#ffadc0"/><path d="M20 10V20H10L20 10Z" fill="#ffadc0"/></g><rect x="804.8" y="201.2" width="201.2" height="201.2" fill="#bdbcc1"/><path d="M 0 402.4 A 201.2 201.2 0 0 1 201.2 603.5999999999999 L 0 603.5999999999999" fill="#484553"/><path d="M 201.2 402.4 A 201.2 201.2 0 0 0 402.4 603.5999999999999 L 402.4 402.4" fill="#2b2837"/><g transform="translate(402.4,402.4) scale(10.059999999999999) rotate(0)"><path d="M10 0H20V10L10 20H0V10L10 0Z" fill="#54515e"/></g><g transform="translate(603.6,402.4) scale(10.059999999999999) rotate(0)"><rect width="20" height="10" fill="#ff8ca7"/></g><rect x="804.8" y="402.4" width="201.2" height="201.2" fill="#87858e"/></g></svg>