<?xml version="1.0" standalone="no"?><svg xmlns:xlink="http://www.w3.org/1999/xlink" xmlns="http://www.w3.org/2000/svg" viewBox="0 0 1000 400" preserveAspectRatio="xMaxYMax slice"><g transform="scale(0.9276437847866419)"><rect x="0" y="0" width="1078" height="431.2" fill="#ffffff"/><rect x="0" y="0" width="215.6" height="215.6" fill="#ffffff"/><g transform="translate(0,0) scale(5.39) rotate(0)"><path d="M10 0L20 10L10 20L0 10L10 0Z" fill="#cac9cd"/></g><g transform="translate(107.8,0) scale(5.39) rotate(0)"><path d="M10 0H20V10L10 20H0V10L10 0Z" fill="#7373f6"/></g><g transform="translate(0,107.8) scale(5.39) rotate(0)"><path d="M10 0H20V10L10 20H0V10L10 0Z" fill="#aba9af"/></g><polygon points="107.8,107.8 215.6,215.6 107.8,215.6" fill="#cdccd0"/><g transform="translate(215.6,0) scale(10.78) rotate(0)"><path d="M10 0L20 10L10 20L0 10L10 0Z" fill="#939199"/></g><polygon points="646.8,0 646.8,215.6 431.2,215.6" fill="#4545f3"/><g transform="translate(646.8,0) scale(10.78) rotate(0)"><path d="M10 0L20 10L10 20L0 10L10 0Z" fill="#9c9aa1"/></g><path d="M 862.4 0 A 215.6 215.6 0 0 1  1078 215.6 L 862.4 0 A 215.6 215.6 0 0 0 1078 215.6" fill="#3434f1"/><path d="M 0 215.6 A 215.6 215.6 0 0 1 215.6 431.2 L 0 431.2" fill="#4b4bf3"/><path d="M 215.6 215.6 A 215.6 215.6 0 0 1  431.2 431.2 L 215.6 215.6 A 215.6 215.6 0 0 0 431.2 431.2" fill="#4848f3"/><rect x="431.2" y="215.6" width="215.6" height="215.6" fill="#ffffff"/><path d="M 431.2 323.4 A 107.8 107.8 0 0 0 539 215.6 L 431.2 215.6" fill="#6666f5"/><path d="M 539 323.4 A 107.8 107.8 0 0 0 646.8 215.6 L 539 215.6" fill="#3636f2"/><path d="M 431.2 431.2 A 107.8 107.8 0 0 0 539 323.4 L 431.2 323.4" fill="#4b4bf3"/><polygon points="539,323.4 646.8,323.4 646.8,431.2" fill="#464351"/><rect x="646.8" y="215.6" width="215.6" height="215.6" fill="#ffffff"/><g transform="translate(646.8,215.6) scale(5.39) rotate(0)"><path d="M10 0H20V10L10 20H0V10L10 0Z" fill="#ffa0b7"/></g><g transform="translate(754.6,215.6) scale(5.39) rotate(0)"><path d="M10 0H20V10L10 20H0V10L10 0Z" fill="#413e4c"/></g><polygon points="646.8,323.4 754.5999999999999,323.4 754.5999999999999,431.2" fill="#ffceda"/><polygon points="754.6,323.4 862.4,323.4 754.6,431.2" fill="#ff5880"/><path d="M 862.4 215.6 A 215.6 215.6 0 0 1  1078 431.2 L 862.4 215.6 A 215.6 215.6 0 0 0 1078 431.2" fill="#d0cfd2"/></g></svg>